<?xml version="1.0" encoding="UTF-8" standalone="no"?>
<svg
   xmlns:dc="http://purl.org/dc/elements/1.1/"
   xmlns:cc="http://creativecommons.org/ns#"
   xmlns:rdf="http://www.w3.org/1999/02/22-rdf-syntax-ns#"
   xmlns:svg="http://www.w3.org/2000/svg"
   xmlns="http://www.w3.org/2000/svg"
   xmlns:sodipodi="http://sodipodi.sourceforge.net/DTD/sodipodi-0.dtd"
   xmlns:inkscape="http://www.inkscape.org/namespaces/inkscape"
   width="210mm"
   height="297mm"
   viewBox="0 0 210 297"
   version="1.1"
   id="svg109"
   inkscape:version="1.0.1 (3bc2e813f5, 2020-09-07)"
   sodipodi:docname="hapStakOculusQ3L.svg">
  <defs
     id="defs103" />
  <sodipodi:namedview
     id="base"
     pagecolor="#ffffff"
     bordercolor="#666666"
     borderopacity="1.0"
     inkscape:pageopacity="0.0"
     inkscape:pageshadow="2"
     inkscape:zoom="0.41806234"
     inkscape:cx="1029.0371"
     inkscape:cy="565.55816"
     inkscape:document-units="mm"
     inkscape:current-layer="layer1"
     inkscape:document-rotation="0"
     showgrid="false"
     inkscape:window-width="1985"
     inkscape:window-height="1041"
     inkscape:window-x="1942"
     inkscape:window-y="49"
     inkscape:window-maximized="0" />
  <metadata
     id="metadata106">
    <rdf:RDF>
      <cc:Work
         rdf:about="">
        <dc:format>image/svg+xml</dc:format>
        <dc:type
           rdf:resource="http://purl.org/dc/dcmitype/StillImage" />
        <dc:title></dc:title>
      </cc:Work>
    </rdf:RDF>
  </metadata>
  <g
     inkscape:label="レイヤー 1"
     inkscape:groupmode="layer"
     id="layer1">
    <path
       id="path967-8-0"
       style="fill:none;stroke:#ff0000;stroke-width:0.2;stroke-miterlimit:4;stroke-dasharray:none;stroke-opacity:1"
       d="m 46.9919,5 a 39.999999,39.999999 0 0 0 -39.9614,38.2447 39.999999,39.999999 0 0 0 -0.02,0.54156 39.999999,39.999999 0 0 0 0,0.005 39.999999,39.999999 0 0 0 -0.01,0.20154 39.999999,39.999999 0 0 0 0,0.18759 39.999999,39.999999 0 0 0 0,0.15761 39.999999,39.999999 0 0 0 0,0.27389 39.999999,39.999999 0 0 0 0,0.20722 39.999999,39.999999 0 0 0 -5e-4,0.18086 39.999999,39.999999 0 0 0 0.494,6.26577 39.999999,39.999999 0 0 0 0.014,0.0904 39.999999,39.999999 0 0 0 2.0154,7.6264 7.9999998,7.9999998 0 0 0 7.476,-7.98245 7.9999998,7.9999998 0 0 0 -1.9916,-5.28185 32.000004,32.000004 0 0 1 -0.01,-0.71831 32.000004,32.000004 0 0 1 31.8942,-32.00011 32.000004,32.000004 0 0 1 0.106,0 32.000004,32.000004 0 0 1 32.0001,32.00011 32.000004,32.000004 0 0 1 -0.01,0.71727 7.9999998,7.9999998 0 0 0 -1.9927,5.28289 7.9999998,7.9999998 0 0 0 7.4766,7.98297 39.999999,39.999999 0 0 0 2.0153,-7.62692 39.999999,39.999999 0 0 0 0,-0.0315 39.999999,39.999999 0 0 0 0.037,-0.23874 39.999999,39.999999 0 0 0 0.038,-0.25167 39.999999,39.999999 0 0 0 0,-0.0186 39.999999,39.999999 0 0 0 0.01,-0.0315 39.999999,39.999999 0 0 0 0.034,-0.23927 39.999999,39.999999 0 0 0 0.028,-0.2036 39.999999,39.999999 0 0 0 0.01,-0.0677 39.999999,39.999999 0 0 0 0,-0.0315 39.999999,39.999999 0 0 0 0.031,-0.23978 39.999999,39.999999 0 0 0 0.065,-0.54312 39.999999,39.999999 0 0 0 0,-0.0315 39.999999,39.999999 0 0 0 0.026,-0.2403 39.999999,39.999999 0 0 0 0.024,-0.23564 39.999999,39.999999 0 0 0 0,-0.0367 39.999999,39.999999 0 0 0 0,-0.0315 39.999999,39.999999 0 0 0 0.023,-0.24081 39.999999,39.999999 0 0 0 0.015,-0.17157 39.999999,39.999999 0 0 0 0.01,-0.10077 39.999999,39.999999 0 0 0 0,-0.032 39.999999,39.999999 0 0 0 0.019,-0.24081 39.999999,39.999999 0 0 0 0,-0.0315 39.999999,39.999999 0 0 0 0.018,-0.24133 39.999999,39.999999 0 0 0 0,-0.0315 39.999999,39.999999 0 0 0 0.016,-0.24132 39.999999,39.999999 0 0 0 0,-0.0315 39.999999,39.999999 0 0 0 0.014,-0.24184 39.999999,39.999999 0 0 0 0.027,-0.54622 39.999999,39.999999 0 0 0 0.02,-0.54674 39.999999,39.999999 0 0 0 0.001,-0.0315 39.999999,39.999999 0 0 0 0.01,-0.24185 39.999999,39.999999 0 0 0 6e-4,-0.0315 39.999999,39.999999 0 0 0 0,-0.24185 39.999999,39.999999 0 0 0 5e-4,-0.032 39.999999,39.999999 0 0 0 5e-4,-0.0501 39.999999,39.999999 0 0 0 0,-0.22324 39.999999,39.999999 0 0 0 0,-0.24185 39.999999,39.999999 0 0 0 0,-0.0315 39.999999,39.999999 0 0 0 0,-0.06 39.999999,39.999999 0 0 0 -0.015,-1.09399 39.999999,39.999999 0 0 0 -0.023,-0.6537 39.999999,39.999999 0 0 0 -5e-4,-0.008 A 39.999999,39.999999 0 0 0 46.993,5 Z M 11.9718,49.70011 a 1.3,1.3 0 0 1 0.02,0 1.3,1.3 0 0 1 1.2997,1.30019 1.3,1.3 0 0 1 -1.2997,1.29966 1.3,1.3 0 0 1 -1.3002,-1.29966 1.3,1.3 0 0 1 1.2801,-1.30019 z m 69.9994,0 a 1.3,1.3 0 0 1 5e-4,0 1.3,1.3 0 0 1 0.02,0 1.3,1.3 0 0 1 1.3002,1.30019 1.3,1.3 0 0 1 -1.3002,1.29966 1.3,1.3 0 0 1 -1.3002,-1.29966 1.3,1.3 0 0 1 1.2795,-1.30019 z" />
    <path
       id="path967-8-1-5"
       style="fill:none;stroke:#ff0000;stroke-width:0.2;stroke-miterlimit:4;stroke-dasharray:none;stroke-opacity:1"
       d="M 23.35358,40 A 7.9999998,7.9999998 0 0 0 16.4,44.0442 a 44.999999,44.999999 0 0 0 1.55701,9.86141 7.9999998,7.9999998 0 0 0 5.39657,2.09445 7.9999998,7.9999998 0 0 0 8.00003,-8.00003 A 7.9999998,7.9999998 0 0 0 23.35358,40 Z m 2.97966,6.69985 a 1.3,1.3 0 0 1 0.0202,0 1.3,1.3 0 0 1 1.30018,1.30018 1.3,1.3 0 0 1 -1.30018,1.29966 1.3,1.3 0 0 1 -1.30018,-1.29966 1.3,1.3 0 0 1 1.28002,-1.30018 z" />
    <path
       id="path967-8-1-5-5"
       style="fill:none;stroke:#ff0000;stroke-width:0.2;stroke-miterlimit:4;stroke-dasharray:none;stroke-opacity:1"
       d="m 70.50002,40 a 7.9999999,7.9999999 0 0 1 6.95358,4.0442 45,45 0 0 1 -1.55701,9.86141 7.9999999,7.9999999 0 0 1 -5.39657,2.09445 A 7.9999999,7.9999999 0 0 1 62.5,48.00003 7.9999999,7.9999999 0 0 1 70.50002,40 Z m -2.97966,6.69985 a 1.3,1.3 0 0 0 -0.0202,0 1.3,1.3 0 0 0 -1.30017,1.30018 1.3,1.3 0 0 0 1.30017,1.29966 1.3,1.3 0 0 0 1.30018,-1.29966 1.3,1.3 0 0 0 -1.28002,-1.30018 z" />
    <circle
       id="path1020-4"
       style="fill:none;stroke:#ff0000;stroke-width:0.2;stroke-opacity:1;stroke-miterlimit:4;stroke-dasharray:none"
       cx="29.691711"
       cy="-76.755363"
       r="0.00054434821"
       transform="scale(1,-1)" />
    <path
       id="rect943-0-2-0"
       style="fill:none;stroke:#ff0000;stroke-width:0.2;stroke-miterlimit:4;stroke-dasharray:none;stroke-opacity:1"
       d="M 34.50001,91.49989 V 75.49984 H 34.00029 31.9999 5.76946 A 42,42 0 0 1 5,67.50034 42,42 0 0 1 5.76946,59.5003 H 31.9999 V 32.99959 h 0.50023 0.49971 1.50017 V 30.5 h 25.00002 v 2.49959 h 1.49965 0.50023 0.50023 V 59.5003 h 26.23095 a 42,42 0 0 1 0.76895,8.00003 42,42 0 0 1 -0.76895,7.99951 H 61.49991 60.00026 59.50003 V 91.49989 Z M 41.50009,79.79983 H 52.49994 V 72.14965 H 41.50009 Z m -6.12985,-8.54005 h 2.93987 V 35.29971 h -2.93987 z m 20.31969,0 h 2.94038 V 35.29971 h -2.94038 z m -43.71517,-2.2598 a 1.5,1.5 0 0 0 0.0253,0 1.5,1.5 0 0 0 1.50016,-1.49965 1.5,1.5 0 0 0 -1.50016,-1.50017 1.5,1.5 0 0 0 -1.50017,1.50017 1.5,1.5 0 0 0 1.47484,1.49965 z m 69.99987,0 a 1.4999999,1.4999999 0 0 0 0.0253,0 1.4999999,1.4999999 0 0 0 1.50016,-1.49965 1.4999999,1.4999999 0 0 0 -1.50016,-1.50017 1.4999999,1.4999999 0 0 0 -1.49965,1.50017 1.4999999,1.4999999 0 0 0 1.47433,1.49965 z M 42.97804,65.49993 a 1.9999845,1.9999998 0 0 0 0.0222,0 h 8.00003 a 1.9999845,1.9999998 0 0 0 1.99988,-2.00039 1.9999845,1.9999998 0 0 0 0,-0.0217 V 39.49998 a 1.9999845,1.9999998 0 0 0 -1.99988,-2.0004 h -8.00003 a 1.9999845,1.9999998 0 0 0 -0.0222,0 1.9999845,1.9999998 0 0 0 -1.97766,2.0004 1.9999845,1.9999998 0 0 0 0,0.0217 v 23.97787 a 1.9999845,1.9999998 0 0 0 1.97766,2.00039 z" />
    <path
       id="path967-9-0-3"
       style="fill:none;stroke:#ff0000;stroke-width:0.2;stroke-miterlimit:4;stroke-dasharray:none;stroke-opacity:1"
       d="m 65.00017,24.000005 a 7.9999998,7.9999998 0 0 0 -0.68782,0.02997 39.5,39.5 0 0 0 -0.81235,7.970057 39.5,39.5 0 0 0 0.81287,7.970573 7.9999998,7.9999998 0 0 0 0.6873,0.02945 7.9999998,7.9999998 0 0 0 8.00002,-8.000026 A 7.9999998,7.9999998 0 0 0 65.00017,24 Z m 2.97449,6.500379 a 1.5,1.5 0 0 1 0.0253,0 1.5,1.5 0 0 1 1.50017,1.49965 1.5,1.5 0 0 1 -1.50017,1.500166 1.5,1.5 0 0 1 -1.50016,-1.500166 1.5,1.5 0 0 1 1.47484,-1.49965 z" />
    <path
       id="path967-9-0-3-3"
       style="fill:none;stroke:#ff0000;stroke-width:0.2;stroke-miterlimit:4;stroke-dasharray:none;stroke-opacity:1"
       d="m 29.00002,24.000005 a 7.9999999,7.9999999 0 0 1 0.68782,0.02997 39.5,39.5 0 0 1 0.81235,7.970058 39.5,39.5 0 0 1 -0.81287,7.970572 7.9999999,7.9999999 0 0 1 -0.6873,0.02945 A 7.9999999,7.9999999 0 0 1 21,32.000029 7.9999999,7.9999999 0 0 1 29.00002,24 Z m -2.97449,6.500379 a 1.5,1.5 0 0 0 -0.0253,0 1.5,1.5 0 0 0 -1.50017,1.49965 1.5,1.5 0 0 0 1.50017,1.500166 1.5,1.5 0 0 0 1.50016,-1.500166 1.5,1.5 0 0 0 -1.47484,-1.49965 z" />
  </g>
</svg>
